<mxfile host="app.diagrams.net" modified="2020-10-09T06:55:29.783Z" agent="5.0 (Macintosh; Intel Mac OS X 10_14_5) AppleWebKit/537.36 (KHTML, like Gecko) Chrome/85.0.4183.121 Safari/537.36" etag="Oa8QJQ6JS5ani7hoKvUh" version="13.7.9" type="github">
  <diagram id="rbDomPj0xeD_tB7KxHFC" name="Page-1">
    <mxGraphModel dx="1188" dy="688" grid="1" gridSize="10" guides="1" tooltips="1" connect="1" arrows="1" fold="1" page="1" pageScale="1" pageWidth="827" pageHeight="1169" math="0" shadow="0">
      <root>
        <mxCell id="0" />
        <mxCell id="1" parent="0" />
        <mxCell id="oaQE3iwZD-TlXpUjB8Jf-1" value="" style="rounded=0;whiteSpace=wrap;html=1;align=left;" vertex="1" parent="1">
          <mxGeometry x="40" y="310" width="850" height="270" as="geometry" />
        </mxCell>
        <mxCell id="oaQE3iwZD-TlXpUjB8Jf-2" style="rounded=0;orthogonalLoop=1;jettySize=auto;html=1;exitX=0;exitY=0.5;exitDx=0;exitDy=0;entryX=1;entryY=0.5;entryDx=0;entryDy=0;endArrow=none;endFill=0;" edge="1" parent="1" source="oaQE3iwZD-TlXpUjB8Jf-8" target="oaQE3iwZD-TlXpUjB8Jf-11">
          <mxGeometry relative="1" as="geometry" />
        </mxCell>
        <mxCell id="oaQE3iwZD-TlXpUjB8Jf-3" style="edgeStyle=none;rounded=0;orthogonalLoop=1;jettySize=auto;html=1;exitX=0.113;exitY=-0.017;exitDx=0;exitDy=0;entryX=0.5;entryY=1;entryDx=0;entryDy=0;endArrow=none;endFill=0;exitPerimeter=0;" edge="1" parent="1" source="oaQE3iwZD-TlXpUjB8Jf-8" target="oaQE3iwZD-TlXpUjB8Jf-10">
          <mxGeometry relative="1" as="geometry" />
        </mxCell>
        <mxCell id="oaQE3iwZD-TlXpUjB8Jf-4" style="edgeStyle=none;rounded=0;orthogonalLoop=1;jettySize=auto;html=1;entryX=0.5;entryY=1;entryDx=0;entryDy=0;endArrow=none;endFill=0;" edge="1" parent="1" source="oaQE3iwZD-TlXpUjB8Jf-8" target="oaQE3iwZD-TlXpUjB8Jf-12">
          <mxGeometry relative="1" as="geometry" />
        </mxCell>
        <mxCell id="oaQE3iwZD-TlXpUjB8Jf-5" style="edgeStyle=none;rounded=0;orthogonalLoop=1;jettySize=auto;html=1;exitX=0;exitY=1;exitDx=0;exitDy=0;entryX=1;entryY=0.5;entryDx=0;entryDy=0;endArrow=none;endFill=0;" edge="1" parent="1" source="oaQE3iwZD-TlXpUjB8Jf-8" target="oaQE3iwZD-TlXpUjB8Jf-14">
          <mxGeometry relative="1" as="geometry" />
        </mxCell>
        <mxCell id="oaQE3iwZD-TlXpUjB8Jf-6" style="edgeStyle=none;rounded=0;orthogonalLoop=1;jettySize=auto;html=1;exitX=0.638;exitY=0;exitDx=0;exitDy=0;entryX=0.5;entryY=1;entryDx=0;entryDy=0;endArrow=none;endFill=0;exitPerimeter=0;" edge="1" parent="1" source="oaQE3iwZD-TlXpUjB8Jf-8" target="oaQE3iwZD-TlXpUjB8Jf-15">
          <mxGeometry relative="1" as="geometry" />
        </mxCell>
        <mxCell id="oaQE3iwZD-TlXpUjB8Jf-7" style="edgeStyle=none;rounded=0;orthogonalLoop=1;jettySize=auto;html=1;exitX=0.25;exitY=0;exitDx=0;exitDy=0;entryX=0.5;entryY=1;entryDx=0;entryDy=0;endArrow=none;endFill=0;" edge="1" parent="1" source="oaQE3iwZD-TlXpUjB8Jf-8" target="oaQE3iwZD-TlXpUjB8Jf-16">
          <mxGeometry relative="1" as="geometry" />
        </mxCell>
        <mxCell id="oaQE3iwZD-TlXpUjB8Jf-8" value="特征schema" style="rounded=0;whiteSpace=wrap;html=1;" vertex="1" parent="1">
          <mxGeometry x="200" y="435" width="470" height="60" as="geometry" />
        </mxCell>
        <mxCell id="oaQE3iwZD-TlXpUjB8Jf-9" value="id" style="ellipse;whiteSpace=wrap;html=1;" vertex="1" parent="1">
          <mxGeometry x="85" y="395" width="40" height="30" as="geometry" />
        </mxCell>
        <mxCell id="oaQE3iwZD-TlXpUjB8Jf-10" value="type" style="ellipse;whiteSpace=wrap;html=1;align=center;spacingTop=0;spacing=2;" vertex="1" parent="1">
          <mxGeometry x="190" y="347.5" width="50" height="35" as="geometry" />
        </mxCell>
        <mxCell id="oaQE3iwZD-TlXpUjB8Jf-11" value="name" style="ellipse;whiteSpace=wrap;html=1;" vertex="1" parent="1">
          <mxGeometry x="70" y="450" width="70" height="30" as="geometry" />
        </mxCell>
        <mxCell id="oaQE3iwZD-TlXpUjB8Jf-12" value="biz" style="ellipse;whiteSpace=wrap;html=1;align=center;spacingTop=0;spacing=2;" vertex="1" parent="1">
          <mxGeometry x="340" y="342.5" width="60" height="35" as="geometry" />
        </mxCell>
        <mxCell id="oaQE3iwZD-TlXpUjB8Jf-13" value="" style="endArrow=none;html=1;entryX=1;entryY=0.5;entryDx=0;entryDy=0;exitX=0;exitY=0;exitDx=0;exitDy=0;" edge="1" parent="1" source="oaQE3iwZD-TlXpUjB8Jf-8" target="oaQE3iwZD-TlXpUjB8Jf-9">
          <mxGeometry width="50" height="50" relative="1" as="geometry">
            <mxPoint x="590" y="560" as="sourcePoint" />
            <mxPoint x="640" y="510" as="targetPoint" />
          </mxGeometry>
        </mxCell>
        <mxCell id="oaQE3iwZD-TlXpUjB8Jf-14" value="chinese_name" style="ellipse;whiteSpace=wrap;html=1;" vertex="1" parent="1">
          <mxGeometry x="57.5" y="500" width="95" height="30" as="geometry" />
        </mxCell>
        <mxCell id="oaQE3iwZD-TlXpUjB8Jf-15" value="valid_time" style="ellipse;whiteSpace=wrap;html=1;align=center;spacingTop=0;spacing=2;" vertex="1" parent="1">
          <mxGeometry x="440" y="340" width="75" height="40" as="geometry" />
        </mxCell>
        <mxCell id="oaQE3iwZD-TlXpUjB8Jf-16" value="status" style="ellipse;whiteSpace=wrap;html=1;align=center;spacingTop=0;spacing=2;" vertex="1" parent="1">
          <mxGeometry x="260" y="342.5" width="60" height="40" as="geometry" />
        </mxCell>
        <mxCell id="oaQE3iwZD-TlXpUjB8Jf-22" style="rounded=0;orthogonalLoop=1;jettySize=auto;html=1;exitX=0.5;exitY=1;exitDx=0;exitDy=0;entryX=0.75;entryY=0;entryDx=0;entryDy=0;endArrow=none;endFill=0;" edge="1" parent="1" source="oaQE3iwZD-TlXpUjB8Jf-17" target="oaQE3iwZD-TlXpUjB8Jf-8">
          <mxGeometry relative="1" as="geometry" />
        </mxCell>
        <mxCell id="oaQE3iwZD-TlXpUjB8Jf-17" value="storage_loca" style="ellipse;whiteSpace=wrap;html=1;align=center;spacingTop=0;spacing=2;" vertex="1" parent="1">
          <mxGeometry x="540" y="340" width="75" height="40" as="geometry" />
        </mxCell>
        <mxCell id="oaQE3iwZD-TlXpUjB8Jf-23" style="edgeStyle=none;rounded=0;orthogonalLoop=1;jettySize=auto;html=1;exitX=0.5;exitY=1;exitDx=0;exitDy=0;entryX=0.898;entryY=0.017;entryDx=0;entryDy=0;entryPerimeter=0;endArrow=none;endFill=0;" edge="1" parent="1" source="oaQE3iwZD-TlXpUjB8Jf-18" target="oaQE3iwZD-TlXpUjB8Jf-8">
          <mxGeometry relative="1" as="geometry" />
        </mxCell>
        <mxCell id="oaQE3iwZD-TlXpUjB8Jf-18" value="effective_time" style="ellipse;whiteSpace=wrap;html=1;align=center;spacingTop=0;spacing=2;" vertex="1" parent="1">
          <mxGeometry x="650" y="340" width="75" height="40" as="geometry" />
        </mxCell>
        <mxCell id="oaQE3iwZD-TlXpUjB8Jf-24" style="edgeStyle=none;rounded=0;orthogonalLoop=1;jettySize=auto;html=1;exitX=0;exitY=1;exitDx=0;exitDy=0;entryX=1;entryY=0;entryDx=0;entryDy=0;endArrow=none;endFill=0;" edge="1" parent="1" source="oaQE3iwZD-TlXpUjB8Jf-19" target="oaQE3iwZD-TlXpUjB8Jf-8">
          <mxGeometry relative="1" as="geometry" />
        </mxCell>
        <mxCell id="oaQE3iwZD-TlXpUjB8Jf-19" value="update_time" style="ellipse;whiteSpace=wrap;html=1;align=center;spacingTop=0;spacing=2;" vertex="1" parent="1">
          <mxGeometry x="752.5" y="382.5" width="75" height="40" as="geometry" />
        </mxCell>
        <mxCell id="oaQE3iwZD-TlXpUjB8Jf-25" style="edgeStyle=none;rounded=0;orthogonalLoop=1;jettySize=auto;html=1;exitX=0;exitY=0.5;exitDx=0;exitDy=0;entryX=1;entryY=0.5;entryDx=0;entryDy=0;endArrow=none;endFill=0;" edge="1" parent="1" source="oaQE3iwZD-TlXpUjB8Jf-20" target="oaQE3iwZD-TlXpUjB8Jf-8">
          <mxGeometry relative="1" as="geometry" />
        </mxCell>
        <mxCell id="oaQE3iwZD-TlXpUjB8Jf-20" value="update_frequence" style="ellipse;whiteSpace=wrap;html=1;align=center;spacingTop=0;spacing=2;" vertex="1" parent="1">
          <mxGeometry x="730" y="445" width="120" height="40" as="geometry" />
        </mxCell>
        <mxCell id="oaQE3iwZD-TlXpUjB8Jf-26" style="edgeStyle=none;rounded=0;orthogonalLoop=1;jettySize=auto;html=1;exitX=0;exitY=0.5;exitDx=0;exitDy=0;entryX=1;entryY=1;entryDx=0;entryDy=0;endArrow=none;endFill=0;" edge="1" parent="1" source="oaQE3iwZD-TlXpUjB8Jf-21" target="oaQE3iwZD-TlXpUjB8Jf-8">
          <mxGeometry relative="1" as="geometry" />
        </mxCell>
        <mxCell id="oaQE3iwZD-TlXpUjB8Jf-21" value="data_instance" style="ellipse;whiteSpace=wrap;html=1;align=center;spacingTop=0;spacing=2;" vertex="1" parent="1">
          <mxGeometry x="740" y="510" width="100" height="40" as="geometry" />
        </mxCell>
      </root>
    </mxGraphModel>
  </diagram>
</mxfile>
